*******************************************************************************
                      Thunder Squad aka Wild Team (1985)
*******************************************************************************

-------------------------------------------------------------------------------
                              General Information
-------------------------------------------------------------------------------
Type.................: Movie



Video Format.........: AVI
Video Bitrate........: 2451
Resolution...........: 766 x 576
Color................: 8 bit
FPS..................: 23.976
Source...............: DVD 4x3
Original Format......: PAL
Genre................: War
IMDb Rating..........: 5.2
Movie Information....: http://www.imdb.com/title/tt0125700

-------------------------------------------------------------------------------
                               Post Information
-------------------------------------------------------------------------------
Posted by............: RadioResearch
Posted on............: 3/3/2013

-------------------------------------------------------------------------------
                                 Release Notes
-------------------------------------------------------------------------------
SEEDBOX SUPPORTED!

A South American rebel leader in exile in Miami is given one last chance to 
overthrow his successor, a brutal dictator, by a multi-national mining group out 
to exploit his countries' mineral resources. PROBLEM: The leader's only son is 
held hostage by the dictator, and will be executed at the first sign of attack. 
SOLUTION: Recruit a team of deadly fighters, all experts in guerilla warfare, to 
free the boy and eliminate the resistance. Thus, the Thunder Squad is born. The 
Thunder Sqaud is an all action, all fighting, all thrilling adventure into the 
country of a madman! 

More Macaroni Combat with this stinker of a film.  Somehow it got 5.2 on IMDB, 
but yet it has its interesting moments, even with bad acting and impossible 
props.  Took me a while to find a DVD of this, and the DVD is clearly made from 
a video, but it is clean and I have only noticed one or too extremely small 
tracking ripples during the film.  V=8.5 A=9.

Enjoy!
RadioResearch

General
Complete name                            : G:AVIThunder Squad aka Wild Team 
(1985)Title 01_02.avi
Format                                   : AVI
Format/Info                              : Audio Video Interleave
Format profile                           : OpenDML
File size                                : 1.47 GiB
Duration                                 : 1h 23mn
Overall bit rate                         : 2 541 Kbps
Writing application                      : Lavf51.12.1

Video
ID                                       : 0
Format                                   : MPEG-4 Visual
Format profile                           : Simple@L1
Format settings, BVOP                    : No
Format settings, QPel                    : No
Format settings, GMC                     : No warppoints
Format settings, Matrix                  : Default (H.263)
Codec ID                                 : DX50
Codec ID/Hint                            : DivX 5
Duration                                 : 1h 23mn
Bit rate                                 : 2 400 Kbps
Width                                    : 766 pixels
Height                                   : 576 pixels
Display aspect ratio                     : 4:3
Frame rate                               : 23.976 fps
Color space                              : YUV
Chroma subsampling                       : 4:2:0
Bit depth                                : 8 bits
Scan type                                : Progressive
Compression mode                         : Lossy
Bits/(Pixel*Frame)                       : 0.227
Stream size                              : 1.39 GiB (94%)
Writing library                          : Lavc51.40.4

Audio
ID                                       : 1
Format                                   : MPEG Audio
Format version                           : Version 1
Format profile                           : Layer 3
Mode                                     : Joint stereo
Mode extension                           : MS Stereo
Codec ID                                 : 55
Codec ID/Hint                            : MP3
Duration                                 : 1h 23mn
Bit rate mode                            : Constant
Bit rate                                 : 128 Kbps
Channel(s)                               : 2 channels
Sampling rate                            : 44.1 KHz
Compression mode                         : Lossy
Stream size                              : 76.0 MiB (5%)
Alignment                                : Aligned on interleaves
Interleave, duration                     : 26 ms (0.63 video frame)




-------------------------------------------------------------------------------
Generated with Cool NFO Creator - http://fly.to/coolbeans
-------------------------------------------------------------------------------
